<svg width="1047" height="52" viewBox="0 0 1047 52" fill="none" xmlns="http://www.w3.org/2000/svg">
<path d="M15.8789 37.5459C17.6191 37.5459 19.1396 37.0186 20.4404 35.9639C21.7412 34.9092 22.4619 33.5908 22.6025 32.0088H27.2168C27.1289 33.6436 26.5664 35.1992 25.5293 36.6758C24.4922 38.1523 23.1035 39.3301 21.3633 40.209C19.6406 41.0879 17.8125 41.5273 15.8789 41.5273C11.9941 41.5273 8.90039 40.2354 6.59766 37.6514C4.3125 35.0498 3.16992 31.499 3.16992 26.999V26.1816C3.16992 23.4043 3.67969 20.9346 4.69922 18.7725C5.71875 16.6104 7.17773 14.9316 9.07617 13.7363C10.9922 12.541 13.251 11.9434 15.8525 11.9434C19.0518 11.9434 21.7061 12.9014 23.8154 14.8174C25.9424 16.7334 27.0762 19.2207 27.2168 22.2793H22.6025C22.4619 20.4336 21.7588 18.9219 20.4932 17.7441C19.2451 16.5488 17.6982 15.9512 15.8525 15.9512C13.374 15.9512 11.4492 16.8477 10.0781 18.6406C8.72461 20.416 8.04785 22.9912 8.04785 26.3662V27.2891C8.04785 30.5762 8.72461 33.1074 10.0781 34.8828C11.4316 36.6582 13.3652 37.5459 15.8789 37.5459ZM37.5791 15.9248C39.7412 13.2705 42.5537 11.9434 46.0166 11.9434C52.0459 11.9434 55.0869 15.3447 55.1396 22.1475V41H50.2617V22.1211C50.2441 20.0645 49.7695 18.5439 48.8379 17.5596C47.9238 16.5752 46.4912 16.083 44.54 16.083C42.958 16.083 41.5693 16.5049 40.374 17.3486C39.1787 18.1924 38.2471 19.2998 37.5791 20.6709V41H32.7012V0.5H37.5791V15.9248ZM74.2822 41.5273C70.415 41.5273 67.2686 40.2617 64.8428 37.7305C62.417 35.1816 61.2041 31.7803 61.2041 27.5264V26.6299C61.2041 23.7998 61.7402 21.2773 62.8125 19.0625C63.9023 16.8301 65.4141 15.0898 67.3477 13.8418C69.2988 12.5762 71.4082 11.9434 73.6758 11.9434C77.3848 11.9434 80.2676 13.165 82.3242 15.6084C84.3809 18.0518 85.4092 21.5498 85.4092 26.1025V28.1328H66.082C66.1523 30.9453 66.9697 33.2217 68.5342 34.9619C70.1162 36.6846 72.1201 37.5459 74.5459 37.5459C76.2686 37.5459 77.7275 37.1943 78.9229 36.4912C80.1182 35.7881 81.1641 34.8564 82.0605 33.6963L85.04 36.0166C82.6494 39.6904 79.0635 41.5273 74.2822 41.5273ZM73.6758 15.9512C71.707 15.9512 70.0547 16.6719 68.7188 18.1133C67.3828 19.5371 66.5566 21.541 66.2402 24.125H80.5312V23.7559C80.3906 21.2773 79.7227 19.3613 78.5273 18.0078C77.332 16.6367 75.7148 15.9512 73.6758 15.9512ZM102.521 37.5459C104.262 37.5459 105.782 37.0186 107.083 35.9639C108.384 34.9092 109.104 33.5908 109.245 32.0088H113.859C113.771 33.6436 113.209 35.1992 112.172 36.6758C111.135 38.1523 109.746 39.3301 108.006 40.209C106.283 41.0879 104.455 41.5273 102.521 41.5273C98.6367 41.5273 95.543 40.2354 93.2402 37.6514C90.9551 35.0498 89.8125 31.499 89.8125 26.999V26.1816C89.8125 23.4043 90.3223 20.9346 91.3418 18.7725C92.3613 16.6104 93.8203 14.9316 95.7188 13.7363C97.6348 12.541 99.8936 11.9434 102.495 11.9434C105.694 11.9434 108.349 12.9014 110.458 14.8174C112.585 16.7334 113.719 19.2207 113.859 22.2793H109.245C109.104 20.4336 108.401 18.9219 107.136 17.7441C105.888 16.5488 104.341 15.9512 102.495 15.9512C100.017 15.9512 98.0918 16.8477 96.7207 18.6406C95.3672 20.416 94.6904 22.9912 94.6904 26.3662V27.2891C94.6904 30.5762 95.3672 33.1074 96.7207 34.8828C98.0742 36.6582 100.008 37.5459 102.521 37.5459ZM127.307 27.79L124.248 30.9805V41H119.37V0.5H124.248V24.9951L126.858 21.8574L135.744 12.4707H141.677L130.576 24.3887L142.969 41H137.247L127.307 27.79ZM158.921 26.498C158.921 22.1211 159.958 18.6055 162.032 15.9512C164.106 13.2793 166.822 11.9434 170.18 11.9434C173.52 11.9434 176.165 13.0859 178.116 15.3711V0.5H182.994V41H178.512L178.274 37.9414C176.323 40.332 173.607 41.5273 170.127 41.5273C166.822 41.5273 164.124 40.1738 162.032 37.4668C159.958 34.7598 158.921 31.2266 158.921 26.8672V26.498ZM163.799 27.0518C163.799 30.2861 164.467 32.8174 165.803 34.6455C167.139 36.4736 168.984 37.3877 171.34 37.3877C174.434 37.3877 176.692 35.999 178.116 33.2217V20.1172C176.657 17.4277 174.416 16.083 171.393 16.083C169.002 16.083 167.139 17.0059 165.803 18.8516C164.467 20.6973 163.799 23.4307 163.799 27.0518ZM202.427 41.5273C198.56 41.5273 195.413 40.2617 192.987 37.7305C190.562 35.1816 189.349 31.7803 189.349 27.5264V26.6299C189.349 23.7998 189.885 21.2773 190.957 19.0625C192.047 16.8301 193.559 15.0898 195.492 13.8418C197.443 12.5762 199.553 11.9434 201.82 11.9434C205.529 11.9434 208.412 13.165 210.469 15.6084C212.525 18.0518 213.554 21.5498 213.554 26.1025V28.1328H194.227C194.297 30.9453 195.114 33.2217 196.679 34.9619C198.261 36.6846 200.265 37.5459 202.69 37.5459C204.413 37.5459 205.872 37.1943 207.067 36.4912C208.263 35.7881 209.309 34.8564 210.205 33.6963L213.185 36.0166C210.794 39.6904 207.208 41.5273 202.427 41.5273ZM201.82 15.9512C199.852 15.9512 198.199 16.6719 196.863 18.1133C195.527 19.5371 194.701 21.541 194.385 24.125H208.676V23.7559C208.535 21.2773 207.867 19.3613 206.672 18.0078C205.477 16.6367 203.859 15.9512 201.82 15.9512ZM243.322 27.0518C243.322 31.3936 242.329 34.8916 240.343 37.5459C238.356 40.2002 235.667 41.5273 232.274 41.5273C228.812 41.5273 226.087 40.4287 224.101 38.2314V51.9688H219.223V12.4707H223.679L223.916 15.6348C225.902 13.1738 228.662 11.9434 232.195 11.9434C235.623 11.9434 238.33 13.2354 240.316 15.8193C242.32 18.4033 243.322 21.998 243.322 26.6035V27.0518ZM238.444 26.498C238.444 23.2812 237.759 20.7412 236.388 18.8779C235.017 17.0146 233.136 16.083 230.745 16.083C227.792 16.083 225.577 17.3926 224.101 20.0117V33.6436C225.56 36.2451 227.792 37.5459 230.798 37.5459C233.136 37.5459 234.99 36.623 236.361 34.7773C237.75 32.9141 238.444 30.1543 238.444 26.498ZM261.384 41.5273C257.517 41.5273 254.37 40.2617 251.944 37.7305C249.519 35.1816 248.306 31.7803 248.306 27.5264V26.6299C248.306 23.7998 248.842 21.2773 249.914 19.0625C251.004 16.8301 252.516 15.0898 254.449 13.8418C256.4 12.5762 258.51 11.9434 260.777 11.9434C264.486 11.9434 267.369 13.165 269.426 15.6084C271.482 18.0518 272.511 21.5498 272.511 26.1025V28.1328H253.184C253.254 30.9453 254.071 33.2217 255.636 34.9619C257.218 36.6846 259.222 37.5459 261.647 37.5459C263.37 37.5459 264.829 37.1943 266.024 36.4912C267.22 35.7881 268.266 34.8564 269.162 33.6963L272.142 36.0166C269.751 39.6904 266.165 41.5273 261.384 41.5273ZM260.777 15.9512C258.809 15.9512 257.156 16.6719 255.82 18.1133C254.484 19.5371 253.658 21.541 253.342 24.125H267.633V23.7559C267.492 21.2773 266.824 19.3613 265.629 18.0078C264.434 16.6367 262.816 15.9512 260.777 15.9512ZM282.794 12.4707L282.952 16.0566C285.132 13.3145 287.979 11.9434 291.495 11.9434C297.524 11.9434 300.565 15.3447 300.618 22.1475V41H295.74V22.1211C295.723 20.0645 295.248 18.5439 294.316 17.5596C293.402 16.5752 291.97 16.083 290.019 16.083C288.437 16.083 287.048 16.5049 285.853 17.3486C284.657 18.1924 283.726 19.2998 283.058 20.6709V41H278.18V12.4707H282.794ZM306.788 26.498C306.788 22.1211 307.825 18.6055 309.899 15.9512C311.974 13.2793 314.689 11.9434 318.047 11.9434C321.387 11.9434 324.032 13.0859 325.983 15.3711V0.5H330.861V41H326.379L326.142 37.9414C324.19 40.332 321.475 41.5273 317.994 41.5273C314.689 41.5273 311.991 40.1738 309.899 37.4668C307.825 34.7598 306.788 31.2266 306.788 26.8672V26.498ZM311.666 27.0518C311.666 30.2861 312.334 32.8174 313.67 34.6455C315.006 36.4736 316.852 37.3877 319.207 37.3877C322.301 37.3877 324.56 35.999 325.983 33.2217V20.1172C324.524 17.4277 322.283 16.083 319.26 16.083C316.869 16.083 315.006 17.0059 313.67 18.8516C312.334 20.6973 311.666 23.4307 311.666 27.0518ZM350.294 41.5273C346.427 41.5273 343.28 40.2617 340.854 37.7305C338.429 35.1816 337.216 31.7803 337.216 27.5264V26.6299C337.216 23.7998 337.752 21.2773 338.824 19.0625C339.914 16.8301 341.426 15.0898 343.359 13.8418C345.311 12.5762 347.42 11.9434 349.688 11.9434C353.396 11.9434 356.279 13.165 358.336 15.6084C360.393 18.0518 361.421 21.5498 361.421 26.1025V28.1328H342.094C342.164 30.9453 342.981 33.2217 344.546 34.9619C346.128 36.6846 348.132 37.5459 350.558 37.5459C352.28 37.5459 353.739 37.1943 354.935 36.4912C356.13 35.7881 357.176 34.8564 358.072 33.6963L361.052 36.0166C358.661 39.6904 355.075 41.5273 350.294 41.5273ZM349.688 15.9512C347.719 15.9512 346.066 16.6719 344.73 18.1133C343.395 19.5371 342.568 21.541 342.252 24.125H356.543V23.7559C356.402 21.2773 355.734 19.3613 354.539 18.0078C353.344 16.6367 351.727 15.9512 349.688 15.9512ZM371.704 12.4707L371.862 16.0566C374.042 13.3145 376.89 11.9434 380.405 11.9434C386.435 11.9434 389.476 15.3447 389.528 22.1475V41H384.65V22.1211C384.633 20.0645 384.158 18.5439 383.227 17.5596C382.312 16.5752 380.88 16.083 378.929 16.083C377.347 16.083 375.958 16.5049 374.763 17.3486C373.567 18.1924 372.636 19.2998 371.968 20.6709V41H367.09V12.4707H371.704ZM408.328 37.5459C410.068 37.5459 411.589 37.0186 412.89 35.9639C414.19 34.9092 414.911 33.5908 415.052 32.0088H419.666C419.578 33.6436 419.016 35.1992 417.979 36.6758C416.941 38.1523 415.553 39.3301 413.812 40.209C412.09 41.0879 410.262 41.5273 408.328 41.5273C404.443 41.5273 401.35 40.2354 399.047 37.6514C396.762 35.0498 395.619 31.499 395.619 26.999V26.1816C395.619 23.4043 396.129 20.9346 397.148 18.7725C398.168 16.6104 399.627 14.9316 401.525 13.7363C403.441 12.541 405.7 11.9434 408.302 11.9434C411.501 11.9434 414.155 12.9014 416.265 14.8174C418.392 16.7334 419.525 19.2207 419.666 22.2793H415.052C414.911 20.4336 414.208 18.9219 412.942 17.7441C411.694 16.5488 410.147 15.9512 408.302 15.9512C405.823 15.9512 403.898 16.8477 402.527 18.6406C401.174 20.416 400.497 22.9912 400.497 26.3662V27.2891C400.497 30.5762 401.174 33.1074 402.527 34.8828C403.881 36.6582 405.814 37.5459 408.328 37.5459ZM430.45 41H425.572V12.4707H430.45V41ZM425.177 4.90332C425.177 4.1123 425.414 3.44434 425.889 2.89941C426.381 2.35449 427.102 2.08203 428.051 2.08203C429 2.08203 429.721 2.35449 430.213 2.89941C430.705 3.44434 430.951 4.1123 430.951 4.90332C430.951 5.69434 430.705 6.35352 430.213 6.88086C429.721 7.4082 429 7.67188 428.051 7.67188C427.102 7.67188 426.381 7.4082 425.889 6.88086C425.414 6.35352 425.177 5.69434 425.177 4.90332ZM450.12 41.5273C446.253 41.5273 443.106 40.2617 440.681 37.7305C438.255 35.1816 437.042 31.7803 437.042 27.5264V26.6299C437.042 23.7998 437.578 21.2773 438.65 19.0625C439.74 16.8301 441.252 15.0898 443.186 13.8418C445.137 12.5762 447.246 11.9434 449.514 11.9434C453.223 11.9434 456.105 13.165 458.162 15.6084C460.219 18.0518 461.247 21.5498 461.247 26.1025V28.1328H441.92C441.99 30.9453 442.808 33.2217 444.372 34.9619C445.954 36.6846 447.958 37.5459 450.384 37.5459C452.106 37.5459 453.565 37.1943 454.761 36.4912C455.956 35.7881 457.002 34.8564 457.898 33.6963L460.878 36.0166C458.487 39.6904 454.901 41.5273 450.12 41.5273ZM449.514 15.9512C447.545 15.9512 445.893 16.6719 444.557 18.1133C443.221 19.5371 442.395 21.541 442.078 24.125H456.369V23.7559C456.229 21.2773 455.561 19.3613 454.365 18.0078C453.17 16.6367 451.553 15.9512 449.514 15.9512ZM483.527 33.4326C483.527 32.1143 483.026 31.0947 482.024 30.374C481.04 29.6357 479.309 29.0029 476.83 28.4756C474.369 27.9482 472.409 27.3154 470.95 26.5771C469.509 25.8389 468.437 24.96 467.733 23.9404C467.048 22.9209 466.705 21.708 466.705 20.3018C466.705 17.9639 467.689 15.9863 469.658 14.3691C471.645 12.752 474.176 11.9434 477.252 11.9434C480.486 11.9434 483.105 12.7783 485.109 14.4482C487.131 16.1182 488.142 18.2539 488.142 20.8555H483.237C483.237 19.5195 482.666 18.3682 481.523 17.4014C480.398 16.4346 478.975 15.9512 477.252 15.9512C475.477 15.9512 474.088 16.3379 473.086 17.1113C472.084 17.8848 471.583 18.8955 471.583 20.1436C471.583 21.3213 472.049 22.209 472.98 22.8066C473.912 23.4043 475.591 23.9756 478.017 24.5205C480.46 25.0654 482.438 25.7158 483.949 26.4717C485.461 27.2275 486.577 28.1416 487.298 29.2139C488.036 30.2686 488.405 31.5605 488.405 33.0898C488.405 35.6387 487.386 37.6865 485.347 39.2334C483.308 40.7627 480.662 41.5273 477.41 41.5273C475.125 41.5273 473.104 41.123 471.346 40.3145C469.588 39.5059 468.208 38.3809 467.206 36.9395C466.222 35.4805 465.729 33.9072 465.729 32.2197H470.607C470.695 33.8545 471.346 35.1553 472.559 36.1221C473.789 37.0713 475.406 37.5459 477.41 37.5459C479.256 37.5459 480.732 37.1768 481.84 36.4385C482.965 35.6826 483.527 34.6807 483.527 33.4326ZM494.602 48.6465L491.833 46.748C493.485 44.4453 494.347 42.0723 494.417 39.6289V35.2256H499.189V39.0488C499.189 40.8242 498.75 42.5996 497.871 44.375C497.01 46.1504 495.92 47.5742 494.602 48.6465ZM530.197 37.5459C531.938 37.5459 533.458 37.0186 534.759 35.9639C536.06 34.9092 536.78 33.5908 536.921 32.0088H541.535C541.447 33.6436 540.885 35.1992 539.848 36.6758C538.811 38.1523 537.422 39.3301 535.682 40.209C533.959 41.0879 532.131 41.5273 530.197 41.5273C526.312 41.5273 523.219 40.2354 520.916 37.6514C518.631 35.0498 517.488 31.499 517.488 26.999V26.1816C517.488 23.4043 517.998 20.9346 519.018 18.7725C520.037 16.6104 521.496 14.9316 523.395 13.7363C525.311 12.541 527.569 11.9434 530.171 11.9434C533.37 11.9434 536.024 12.9014 538.134 14.8174C540.261 16.7334 541.395 19.2207 541.535 22.2793H536.921C536.78 20.4336 536.077 18.9219 534.812 17.7441C533.563 16.5488 532.017 15.9512 530.171 15.9512C527.692 15.9512 525.768 16.8477 524.396 18.6406C523.043 20.416 522.366 22.9912 522.366 26.3662V27.2891C522.366 30.5762 523.043 33.1074 524.396 34.8828C525.75 36.6582 527.684 37.5459 530.197 37.5459ZM551.897 15.9248C554.06 13.2705 556.872 11.9434 560.335 11.9434C566.364 11.9434 569.405 15.3447 569.458 22.1475V41H564.58V22.1211C564.562 20.0645 564.088 18.5439 563.156 17.5596C562.242 16.5752 560.81 16.083 558.858 16.083C557.276 16.083 555.888 16.5049 554.692 17.3486C553.497 18.1924 552.565 19.2998 551.897 20.6709V41H547.02V0.5H551.897V15.9248ZM588.601 41.5273C584.733 41.5273 581.587 40.2617 579.161 37.7305C576.735 35.1816 575.522 31.7803 575.522 27.5264V26.6299C575.522 23.7998 576.059 21.2773 577.131 19.0625C578.221 16.8301 579.732 15.0898 581.666 13.8418C583.617 12.5762 585.727 11.9434 587.994 11.9434C591.703 11.9434 594.586 13.165 596.643 15.6084C598.699 18.0518 599.728 21.5498 599.728 26.1025V28.1328H580.4C580.471 30.9453 581.288 33.2217 582.853 34.9619C584.435 36.6846 586.438 37.5459 588.864 37.5459C590.587 37.5459 592.046 37.1943 593.241 36.4912C594.437 35.7881 595.482 34.8564 596.379 33.6963L599.358 36.0166C596.968 39.6904 593.382 41.5273 588.601 41.5273ZM587.994 15.9512C586.025 15.9512 584.373 16.6719 583.037 18.1133C581.701 19.5371 580.875 21.541 580.559 24.125H594.85V23.7559C594.709 21.2773 594.041 19.3613 592.846 18.0078C591.65 16.6367 590.033 15.9512 587.994 15.9512ZM616.84 37.5459C618.58 37.5459 620.101 37.0186 621.401 35.9639C622.702 34.9092 623.423 33.5908 623.563 32.0088H628.178C628.09 33.6436 627.527 35.1992 626.49 36.6758C625.453 38.1523 624.064 39.3301 622.324 40.209C620.602 41.0879 618.773 41.5273 616.84 41.5273C612.955 41.5273 609.861 40.2354 607.559 37.6514C605.273 35.0498 604.131 31.499 604.131 26.999V26.1816C604.131 23.4043 604.641 20.9346 605.66 18.7725C606.68 16.6104 608.139 14.9316 610.037 13.7363C611.953 12.541 614.212 11.9434 616.813 11.9434C620.013 11.9434 622.667 12.9014 624.776 14.8174C626.903 16.7334 628.037 19.2207 628.178 22.2793H623.563C623.423 20.4336 622.72 18.9219 621.454 17.7441C620.206 16.5488 618.659 15.9512 616.813 15.9512C614.335 15.9512 612.41 16.8477 611.039 18.6406C609.686 20.416 609.009 22.9912 609.009 26.3662V27.2891C609.009 30.5762 609.686 33.1074 611.039 34.8828C612.393 36.6582 614.326 37.5459 616.84 37.5459ZM641.625 27.79L638.566 30.9805V41H633.688V0.5H638.566V24.9951L641.177 21.8574L650.062 12.4707H655.995L644.895 24.3887L657.287 41H651.565L641.625 27.79ZM659.739 26.4717C659.739 23.6768 660.284 21.1631 661.374 18.9307C662.481 16.6982 664.011 14.9756 665.962 13.7627C667.931 12.5498 670.172 11.9434 672.686 11.9434C676.57 11.9434 679.708 13.2881 682.099 15.9775C684.507 18.667 685.711 22.2441 685.711 26.709V27.0518C685.711 29.8291 685.175 32.3252 684.103 34.54C683.048 36.7373 681.527 38.4512 679.541 39.6816C677.572 40.9121 675.305 41.5273 672.738 41.5273C668.871 41.5273 665.733 40.1826 663.325 37.4932C660.935 34.8037 659.739 31.2441 659.739 26.8145V26.4717ZM664.644 27.0518C664.644 30.2158 665.373 32.7559 666.832 34.6719C668.309 36.5879 670.277 37.5459 672.738 37.5459C675.217 37.5459 677.186 36.5791 678.645 34.6455C680.104 32.6943 680.833 29.9697 680.833 26.4717C680.833 23.3428 680.086 20.8115 678.592 18.8779C677.115 16.9268 675.146 15.9512 672.686 15.9512C670.277 15.9512 668.335 16.9092 666.858 18.8252C665.382 20.7412 664.644 23.4834 664.644 27.0518ZM709.441 38.1787C707.543 40.4111 704.757 41.5273 701.083 41.5273C698.042 41.5273 695.722 40.6484 694.122 38.8906C692.54 37.1152 691.74 34.4961 691.723 31.0332V12.4707H696.601V30.9014C696.601 35.2256 698.358 37.3877 701.874 37.3877C705.601 37.3877 708.079 35.999 709.31 33.2217V12.4707H714.188V41H709.547L709.441 38.1787ZM728.241 5.5625V12.4707H733.567V16.2412H728.241V33.9336C728.241 35.0762 728.479 35.9375 728.953 36.5176C729.428 37.0801 730.236 37.3613 731.379 37.3613C731.941 37.3613 732.715 37.2559 733.699 37.0449V41C732.416 41.3516 731.168 41.5273 729.955 41.5273C727.775 41.5273 726.132 40.8682 725.024 39.5498C723.917 38.2314 723.363 36.3594 723.363 33.9336V16.2412H718.169V12.4707H723.363V5.5625H728.241ZM776.836 27.0518C776.836 31.4111 775.834 34.918 773.83 37.5723C771.826 40.209 769.137 41.5273 765.762 41.5273C762.158 41.5273 759.372 40.2529 757.403 37.7041L757.166 41H752.684V0.5H757.562V15.6084C759.53 13.165 762.246 11.9434 765.709 11.9434C769.172 11.9434 771.888 13.2529 773.856 15.8721C775.843 18.4912 776.836 22.0771 776.836 26.6299V27.0518ZM771.958 26.498C771.958 23.1758 771.316 20.6094 770.033 18.7988C768.75 16.9883 766.904 16.083 764.496 16.083C761.279 16.083 758.968 17.5771 757.562 20.5654V32.9053C759.056 35.8936 761.385 37.3877 764.549 37.3877C766.887 37.3877 768.706 36.4824 770.007 34.6719C771.308 32.8613 771.958 30.1367 771.958 26.498ZM796.796 16.8477C796.058 16.7246 795.258 16.6631 794.396 16.6631C791.197 16.6631 789.026 18.0254 787.884 20.75V41H783.006V12.4707H787.752L787.831 15.7666C789.431 13.2178 791.698 11.9434 794.634 11.9434C795.583 11.9434 796.304 12.0664 796.796 12.3125V16.8477ZM817.863 41C817.582 40.4375 817.354 39.4355 817.178 37.9941C814.91 40.3496 812.203 41.5273 809.057 41.5273C806.244 41.5273 803.933 40.7363 802.122 39.1543C800.329 37.5547 799.433 35.5332 799.433 33.0898C799.433 30.1191 800.558 27.8164 802.808 26.1816C805.075 24.5293 808.257 23.7031 812.353 23.7031H817.099V21.4619C817.099 19.7568 816.589 18.4033 815.569 17.4014C814.55 16.3818 813.047 15.8721 811.061 15.8721C809.32 15.8721 807.861 16.3115 806.684 17.1904C805.506 18.0693 804.917 19.1328 804.917 20.3809H800.013C800.013 18.957 800.514 17.5859 801.516 16.2676C802.535 14.9316 803.906 13.877 805.629 13.1035C807.369 12.3301 809.276 11.9434 811.351 11.9434C814.638 11.9434 817.213 12.7695 819.076 14.4219C820.939 16.0566 821.906 18.3154 821.977 21.1982V34.3291C821.977 36.9482 822.311 39.0312 822.979 40.5781V41H817.863ZM809.769 37.2822C811.298 37.2822 812.748 36.8867 814.119 36.0957C815.49 35.3047 816.483 34.2764 817.099 33.0107V27.1572H813.275C807.299 27.1572 804.311 28.9062 804.311 32.4043C804.311 33.9336 804.82 35.1289 805.84 35.9902C806.859 36.8516 808.169 37.2822 809.769 37.2822ZM834.237 12.4707L834.396 16.0566C836.575 13.3145 839.423 11.9434 842.938 11.9434C848.968 11.9434 852.009 15.3447 852.062 22.1475V41H847.184V22.1211C847.166 20.0645 846.691 18.5439 845.76 17.5596C844.846 16.5752 843.413 16.083 841.462 16.083C839.88 16.083 838.491 16.5049 837.296 17.3486C836.101 18.1924 835.169 19.2998 834.501 20.6709V41H829.623V12.4707H834.237ZM870.861 37.5459C872.602 37.5459 874.122 37.0186 875.423 35.9639C876.724 34.9092 877.444 33.5908 877.585 32.0088H882.199C882.111 33.6436 881.549 35.1992 880.512 36.6758C879.475 38.1523 878.086 39.3301 876.346 40.209C874.623 41.0879 872.795 41.5273 870.861 41.5273C866.977 41.5273 863.883 40.2354 861.58 37.6514C859.295 35.0498 858.152 31.499 858.152 26.999V26.1816C858.152 23.4043 858.662 20.9346 859.682 18.7725C860.701 16.6104 862.16 14.9316 864.059 13.7363C865.975 12.541 868.233 11.9434 870.835 11.9434C874.034 11.9434 876.688 12.9014 878.798 14.8174C880.925 16.7334 882.059 19.2207 882.199 22.2793H877.585C877.444 20.4336 876.741 18.9219 875.476 17.7441C874.228 16.5488 872.681 15.9512 870.835 15.9512C868.356 15.9512 866.432 16.8477 865.061 18.6406C863.707 20.416 863.03 22.9912 863.03 26.3662V27.2891C863.03 30.5762 863.707 33.1074 865.061 34.8828C866.414 36.6582 868.348 37.5459 870.861 37.5459ZM892.562 15.9248C894.724 13.2705 897.536 11.9434 900.999 11.9434C907.028 11.9434 910.069 15.3447 910.122 22.1475V41H905.244V22.1211C905.227 20.0645 904.752 18.5439 903.82 17.5596C902.906 16.5752 901.474 16.083 899.522 16.083C897.94 16.083 896.552 16.5049 895.356 17.3486C894.161 18.1924 893.229 19.2998 892.562 20.6709V41H887.684V0.5H892.562V15.9248ZM917.268 48.6465L914.499 46.748C916.151 44.4453 917.013 42.0723 917.083 39.6289V35.2256H921.855V39.0488C921.855 40.8242 921.416 42.5996 920.537 44.375C919.676 46.1504 918.586 47.5742 917.268 48.6465ZM950.833 34.3818L957.899 12.4707H962.883L952.652 41H948.935L938.599 12.4707H943.582L950.833 34.3818ZM972.876 41H967.998V12.4707H972.876V41ZM967.603 4.90332C967.603 4.1123 967.84 3.44434 968.314 2.89941C968.807 2.35449 969.527 2.08203 970.477 2.08203C971.426 2.08203 972.146 2.35449 972.639 2.89941C973.131 3.44434 973.377 4.1123 973.377 4.90332C973.377 5.69434 973.131 6.35352 972.639 6.88086C972.146 7.4082 971.426 7.67188 970.477 7.67188C969.527 7.67188 968.807 7.4082 968.314 6.88086C967.84 6.35352 967.603 5.69434 967.603 4.90332ZM992.546 41.5273C988.679 41.5273 985.532 40.2617 983.106 37.7305C980.681 35.1816 979.468 31.7803 979.468 27.5264V26.6299C979.468 23.7998 980.004 21.2773 981.076 19.0625C982.166 16.8301 983.678 15.0898 985.611 13.8418C987.562 12.5762 989.672 11.9434 991.939 11.9434C995.648 11.9434 998.531 13.165 1000.59 15.6084C1002.64 18.0518 1003.67 21.5498 1003.67 26.1025V28.1328H984.346C984.416 30.9453 985.233 33.2217 986.798 34.9619C988.38 36.6846 990.384 37.5459 992.81 37.5459C994.532 37.5459 995.991 37.1943 997.187 36.4912C998.382 35.7881 999.428 34.8564 1000.32 33.6963L1003.3 36.0166C1000.91 39.6904 997.327 41.5273 992.546 41.5273ZM991.939 15.9512C989.971 15.9512 988.318 16.6719 986.982 18.1133C985.646 19.5371 984.82 21.541 984.504 24.125H998.795V23.7559C998.654 21.2773 997.986 19.3613 996.791 18.0078C995.596 16.6367 993.979 15.9512 991.939 15.9512ZM1034.6 34.2764L1040.09 12.4707H1044.96L1036.66 41H1032.7L1025.77 19.3789L1019.02 41H1015.06L1006.78 12.4707H1011.64L1017.25 33.8281L1023.9 12.4707H1027.83L1034.6 34.2764Z" fill="#999795"/>
<path d="M0.744141 27.5H1046.23V30.1895H0.744141V27.5Z" fill="#999795"/>
</svg>
