<svg width="1011" height="49" viewBox="0 0 1011 49" fill="none" xmlns="http://www.w3.org/2000/svg">
<path d="M18.1816 16.8477C17.4434 16.7246 16.6436 16.6631 15.7822 16.6631C12.583 16.6631 10.4121 18.0254 9.26953 20.75V41H4.3916V12.4707H9.1377L9.2168 15.7666C10.8164 13.2178 13.084 11.9434 16.0195 11.9434C16.9688 11.9434 17.6895 12.0664 18.1816 12.3125V16.8477ZM34.002 41.5273C30.1348 41.5273 26.9883 40.2617 24.5625 37.7305C22.1367 35.1816 20.9238 31.7803 20.9238 27.5264V26.6299C20.9238 23.7998 21.46 21.2773 22.5322 19.0625C23.6221 16.8301 25.1338 15.0898 27.0674 13.8418C29.0186 12.5762 31.1279 11.9434 33.3955 11.9434C37.1045 11.9434 39.9873 13.165 42.0439 15.6084C44.1006 18.0518 45.1289 21.5498 45.1289 26.1025V28.1328H25.8018C25.8721 30.9453 26.6895 33.2217 28.2539 34.9619C29.8359 36.6846 31.8398 37.5459 34.2656 37.5459C35.9883 37.5459 37.4473 37.1943 38.6426 36.4912C39.8379 35.7881 40.8838 34.8564 41.7803 33.6963L44.7598 36.0166C42.3691 39.6904 38.7832 41.5273 34.002 41.5273ZM33.3955 15.9512C31.4268 15.9512 29.7744 16.6719 28.4385 18.1133C27.1025 19.5371 26.2764 21.541 25.96 24.125H40.251V23.7559C40.1104 21.2773 39.4424 19.3613 38.2471 18.0078C37.0518 16.6367 35.4346 15.9512 33.3955 15.9512ZM68.4111 41C68.1299 40.4375 67.9014 39.4355 67.7256 37.9941C65.458 40.3496 62.751 41.5273 59.6045 41.5273C56.792 41.5273 54.4805 40.7363 52.6699 39.1543C50.877 37.5547 49.9805 35.5332 49.9805 33.0898C49.9805 30.1191 51.1055 27.8164 53.3555 26.1816C55.623 24.5293 58.8047 23.7031 62.9004 23.7031H67.6465V21.4619C67.6465 19.7568 67.1367 18.4033 66.1172 17.4014C65.0977 16.3818 63.5947 15.8721 61.6084 15.8721C59.8682 15.8721 58.4092 16.3115 57.2314 17.1904C56.0537 18.0693 55.4648 19.1328 55.4648 20.3809H50.5605C50.5605 18.957 51.0615 17.5859 52.0635 16.2676C53.083 14.9316 54.4541 13.877 56.1768 13.1035C57.917 12.3301 59.8242 11.9434 61.8984 11.9434C65.1855 11.9434 67.7607 12.7695 69.624 14.4219C71.4873 16.0566 72.4541 18.3154 72.5244 21.1982V34.3291C72.5244 36.9482 72.8584 39.0312 73.5264 40.5781V41H68.4111ZM60.3164 37.2822C61.8457 37.2822 63.2959 36.8867 64.667 36.0957C66.0381 35.3047 67.0312 34.2764 67.6465 33.0107V27.1572H63.8232C57.8467 27.1572 54.8584 28.9062 54.8584 32.4043C54.8584 33.9336 55.3682 35.1289 56.3877 35.9902C57.4072 36.8516 58.7168 37.2822 60.3164 37.2822ZM78.9844 26.498C78.9844 22.1211 80.0215 18.6055 82.0957 15.9512C84.1699 13.2793 86.8857 11.9434 90.2432 11.9434C93.583 11.9434 96.2285 13.0859 98.1797 15.3711V0.5H103.058V41H98.5752L98.3379 37.9414C96.3867 40.332 93.6709 41.5273 90.1904 41.5273C86.8857 41.5273 84.1875 40.1738 82.0957 37.4668C80.0215 34.7598 78.9844 31.2266 78.9844 26.8672V26.498ZM83.8623 27.0518C83.8623 30.2861 84.5303 32.8174 85.8662 34.6455C87.2021 36.4736 89.0479 37.3877 91.4033 37.3877C94.4971 37.3877 96.7559 35.999 98.1797 33.2217V20.1172C96.7207 17.4277 94.4795 16.083 91.4561 16.083C89.0654 16.083 87.2021 17.0059 85.8662 18.8516C84.5303 20.6973 83.8623 23.4307 83.8623 27.0518ZM115.239 12.4707L115.371 15.6348C117.463 13.1738 120.284 11.9434 123.835 11.9434C127.825 11.9434 130.541 13.4727 131.982 16.5312C132.932 15.1602 134.162 14.0527 135.674 13.209C137.203 12.3652 139.005 11.9434 141.079 11.9434C147.337 11.9434 150.519 15.2568 150.624 21.8838V41H145.746V22.1738C145.746 20.1348 145.28 18.6143 144.349 17.6123C143.417 16.5928 141.853 16.083 139.655 16.083C137.845 16.083 136.342 16.6279 135.146 17.7178C133.951 18.79 133.257 20.2402 133.063 22.0684V41H128.159V22.3057C128.159 18.1572 126.129 16.083 122.068 16.083C118.869 16.083 116.681 17.4453 115.503 20.1699V41H110.625V12.4707H115.239ZM169.846 41.5273C165.979 41.5273 162.832 40.2617 160.406 37.7305C157.98 35.1816 156.768 31.7803 156.768 27.5264V26.6299C156.768 23.7998 157.304 21.2773 158.376 19.0625C159.466 16.8301 160.978 15.0898 162.911 13.8418C164.862 12.5762 166.972 11.9434 169.239 11.9434C172.948 11.9434 175.831 13.165 177.888 15.6084C179.944 18.0518 180.973 21.5498 180.973 26.1025V28.1328H161.646C161.716 30.9453 162.533 33.2217 164.098 34.9619C165.68 36.6846 167.684 37.5459 170.109 37.5459C171.832 37.5459 173.291 37.1943 174.486 36.4912C175.682 35.7881 176.728 34.8564 177.624 33.6963L180.604 36.0166C178.213 39.6904 174.627 41.5273 169.846 41.5273ZM169.239 15.9512C167.271 15.9512 165.618 16.6719 164.282 18.1133C162.946 19.5371 162.12 21.541 161.804 24.125H176.095V23.7559C175.954 21.2773 175.286 19.3613 174.091 18.0078C172.896 16.6367 171.278 15.9512 169.239 15.9512ZM186.747 38.4424C186.747 37.5986 186.993 36.8955 187.485 36.333C187.995 35.7705 188.751 35.4893 189.753 35.4893C190.755 35.4893 191.511 35.7705 192.021 36.333C192.548 36.8955 192.812 37.5986 192.812 38.4424C192.812 39.251 192.548 39.9277 192.021 40.4727C191.511 41.0176 190.755 41.29 189.753 41.29C188.751 41.29 187.995 41.0176 187.485 40.4727C186.993 39.9277 186.747 39.251 186.747 38.4424ZM207.498 5.5625V12.4707H212.824V16.2412H207.498V33.9336C207.498 35.0762 207.735 35.9375 208.21 36.5176C208.685 37.0801 209.493 37.3613 210.636 37.3613C211.198 37.3613 211.972 37.2559 212.956 37.0449V41C211.673 41.3516 210.425 41.5273 209.212 41.5273C207.032 41.5273 205.389 40.8682 204.281 39.5498C203.174 38.2314 202.62 36.3594 202.62 33.9336V16.2412H197.426V12.4707H202.62V5.5625H207.498ZM228.117 22.8857L234.445 12.4707H240.141L230.807 26.5771L240.431 41H234.788L228.196 30.3213L221.604 41H215.936L225.56 26.5771L216.226 12.4707H221.868L228.117 22.8857ZM251.953 5.5625V12.4707H257.279V16.2412H251.953V33.9336C251.953 35.0762 252.19 35.9375 252.665 36.5176C253.14 37.0801 253.948 37.3613 255.091 37.3613C255.653 37.3613 256.427 37.2559 257.411 37.0449V41C256.128 41.3516 254.88 41.5273 253.667 41.5273C251.487 41.5273 249.844 40.8682 248.736 39.5498C247.629 38.2314 247.075 36.3594 247.075 33.9336V16.2412H241.881V12.4707H247.075V5.5625H251.953ZM262.843 48.6465L260.074 46.748C261.727 44.4453 262.588 42.0723 262.658 39.6289V35.2256H267.431V39.0488C267.431 40.8242 266.991 42.5996 266.112 44.375C265.251 46.1504 264.161 47.5742 262.843 48.6465ZM292.295 41H287.417V12.4707H292.295V41ZM287.021 4.90332C287.021 4.1123 287.259 3.44434 287.733 2.89941C288.226 2.35449 288.946 2.08203 289.896 2.08203C290.845 2.08203 291.565 2.35449 292.058 2.89941C292.55 3.44434 292.796 4.1123 292.796 4.90332C292.796 5.69434 292.55 6.35352 292.058 6.88086C291.565 7.4082 290.845 7.67188 289.896 7.67188C288.946 7.67188 288.226 7.4082 287.733 6.88086C287.259 6.35352 287.021 5.69434 287.021 4.90332ZM304.74 12.4707L304.898 16.0566C307.078 13.3145 309.926 11.9434 313.441 11.9434C319.471 11.9434 322.512 15.3447 322.564 22.1475V41H317.687V22.1211C317.669 20.0645 317.194 18.5439 316.263 17.5596C315.349 16.5752 313.916 16.083 311.965 16.083C310.383 16.083 308.994 16.5049 307.799 17.3486C306.604 18.1924 305.672 19.2998 305.004 20.6709V41H300.126V12.4707H304.74ZM346.532 33.4326C346.532 32.1143 346.031 31.0947 345.029 30.374C344.045 29.6357 342.313 29.0029 339.835 28.4756C337.374 27.9482 335.414 27.3154 333.955 26.5771C332.514 25.8389 331.441 24.96 330.738 23.9404C330.053 22.9209 329.71 21.708 329.71 20.3018C329.71 17.9639 330.694 15.9863 332.663 14.3691C334.649 12.752 337.181 11.9434 340.257 11.9434C343.491 11.9434 346.11 12.7783 348.114 14.4482C350.136 16.1182 351.146 18.2539 351.146 20.8555H346.242C346.242 19.5195 345.671 18.3682 344.528 17.4014C343.403 16.4346 341.979 15.9512 340.257 15.9512C338.481 15.9512 337.093 16.3379 336.091 17.1113C335.089 17.8848 334.588 18.8955 334.588 20.1436C334.588 21.3213 335.054 22.209 335.985 22.8066C336.917 23.4043 338.596 23.9756 341.021 24.5205C343.465 25.0654 345.442 25.7158 346.954 26.4717C348.466 27.2275 349.582 28.1416 350.303 29.2139C351.041 30.2686 351.41 31.5605 351.41 33.0898C351.41 35.6387 350.391 37.6865 348.352 39.2334C346.312 40.7627 343.667 41.5273 340.415 41.5273C338.13 41.5273 336.108 41.123 334.351 40.3145C332.593 39.5059 331.213 38.3809 330.211 36.9395C329.227 35.4805 328.734 33.9072 328.734 32.2197H333.612C333.7 33.8545 334.351 35.1553 335.563 36.1221C336.794 37.0713 338.411 37.5459 340.415 37.5459C342.261 37.5459 343.737 37.1768 344.845 36.4385C345.97 35.6826 346.532 34.6807 346.532 33.4326ZM364.383 5.5625V12.4707H369.709V16.2412H364.383V33.9336C364.383 35.0762 364.62 35.9375 365.095 36.5176C365.569 37.0801 366.378 37.3613 367.521 37.3613C368.083 37.3613 368.856 37.2559 369.841 37.0449V41C368.558 41.3516 367.31 41.5273 366.097 41.5273C363.917 41.5273 362.273 40.8682 361.166 39.5498C360.059 38.2314 359.505 36.3594 359.505 33.9336V16.2412H354.311V12.4707H359.505V5.5625H364.383ZM393.044 41C392.763 40.4375 392.534 39.4355 392.358 37.9941C390.091 40.3496 387.384 41.5273 384.237 41.5273C381.425 41.5273 379.113 40.7363 377.303 39.1543C375.51 37.5547 374.613 35.5332 374.613 33.0898C374.613 30.1191 375.738 27.8164 377.988 26.1816C380.256 24.5293 383.438 23.7031 387.533 23.7031H392.279V21.4619C392.279 19.7568 391.77 18.4033 390.75 17.4014C389.73 16.3818 388.228 15.8721 386.241 15.8721C384.501 15.8721 383.042 16.3115 381.864 17.1904C380.687 18.0693 380.098 19.1328 380.098 20.3809H375.193C375.193 18.957 375.694 17.5859 376.696 16.2676C377.716 14.9316 379.087 13.877 380.81 13.1035C382.55 12.3301 384.457 11.9434 386.531 11.9434C389.818 11.9434 392.394 12.7695 394.257 14.4219C396.12 16.0566 397.087 18.3154 397.157 21.1982V34.3291C397.157 36.9482 397.491 39.0312 398.159 40.5781V41H393.044ZM384.949 37.2822C386.479 37.2822 387.929 36.8867 389.3 36.0957C390.671 35.3047 391.664 34.2764 392.279 33.0107V27.1572H388.456C382.479 27.1572 379.491 28.9062 379.491 32.4043C379.491 33.9336 380.001 35.1289 381.021 35.9902C382.04 36.8516 383.35 37.2822 384.949 37.2822ZM410.104 41H405.226V0.5H410.104V41ZM423.234 41H418.356V0.5H423.234V41ZM451.078 5.5625V12.4707H456.404V16.2412H451.078V33.9336C451.078 35.0762 451.315 35.9375 451.79 36.5176C452.265 37.0801 453.073 37.3613 454.216 37.3613C454.778 37.3613 455.552 37.2559 456.536 37.0449V41C455.253 41.3516 454.005 41.5273 452.792 41.5273C450.612 41.5273 448.969 40.8682 447.861 39.5498C446.754 38.2314 446.2 36.3594 446.2 33.9336V16.2412H441.006V12.4707H446.2V5.5625H451.078ZM460.307 26.4717C460.307 23.6768 460.852 21.1631 461.941 18.9307C463.049 16.6982 464.578 14.9756 466.529 13.7627C468.498 12.5498 470.739 11.9434 473.253 11.9434C477.138 11.9434 480.275 13.2881 482.666 15.9775C485.074 18.667 486.278 22.2441 486.278 26.709V27.0518C486.278 29.8291 485.742 32.3252 484.67 34.54C483.615 36.7373 482.095 38.4512 480.108 39.6816C478.14 40.9121 475.872 41.5273 473.306 41.5273C469.438 41.5273 466.301 40.1826 463.893 37.4932C461.502 34.8037 460.307 31.2441 460.307 26.8145V26.4717ZM465.211 27.0518C465.211 30.2158 465.94 32.7559 467.399 34.6719C468.876 36.5879 470.845 37.5459 473.306 37.5459C475.784 37.5459 477.753 36.5791 479.212 34.6455C480.671 32.6943 481.4 29.9697 481.4 26.4717C481.4 23.3428 480.653 20.8115 479.159 18.8779C477.683 16.9268 475.714 15.9512 473.253 15.9512C470.845 15.9512 468.902 16.9092 467.426 18.8252C465.949 20.7412 465.211 23.4834 465.211 27.0518ZM491.104 26.4717C491.104 23.6768 491.648 21.1631 492.738 18.9307C493.846 16.6982 495.375 14.9756 497.326 13.7627C499.295 12.5498 501.536 11.9434 504.05 11.9434C507.935 11.9434 511.072 13.2881 513.463 15.9775C515.871 18.667 517.075 22.2441 517.075 26.709V27.0518C517.075 29.8291 516.539 32.3252 515.467 34.54C514.412 36.7373 512.892 38.4512 510.905 39.6816C508.937 40.9121 506.669 41.5273 504.103 41.5273C500.235 41.5273 497.098 40.1826 494.689 37.4932C492.299 34.8037 491.104 31.2441 491.104 26.8145V26.4717ZM496.008 27.0518C496.008 30.2158 496.737 32.7559 498.196 34.6719C499.673 36.5879 501.642 37.5459 504.103 37.5459C506.581 37.5459 508.55 36.5791 510.009 34.6455C511.468 32.6943 512.197 29.9697 512.197 26.4717C512.197 23.3428 511.45 20.8115 509.956 18.8779C508.479 16.9268 506.511 15.9512 504.05 15.9512C501.642 15.9512 499.699 16.9092 498.223 18.8252C496.746 20.7412 496.008 23.4834 496.008 27.0518ZM528.492 41H523.614V0.5H528.492V41ZM552.935 33.4326C552.935 32.1143 552.434 31.0947 551.432 30.374C550.447 29.6357 548.716 29.0029 546.237 28.4756C543.776 27.9482 541.816 27.3154 540.357 26.5771C538.916 25.8389 537.844 24.96 537.141 23.9404C536.455 22.9209 536.112 21.708 536.112 20.3018C536.112 17.9639 537.097 15.9863 539.065 14.3691C541.052 12.752 543.583 11.9434 546.659 11.9434C549.894 11.9434 552.513 12.7783 554.517 14.4482C556.538 16.1182 557.549 18.2539 557.549 20.8555H552.645C552.645 19.5195 552.073 18.3682 550.931 17.4014C549.806 16.4346 548.382 15.9512 546.659 15.9512C544.884 15.9512 543.495 16.3379 542.493 17.1113C541.491 17.8848 540.99 18.8955 540.99 20.1436C540.99 21.3213 541.456 22.209 542.388 22.8066C543.319 23.4043 544.998 23.9756 547.424 24.5205C549.867 25.0654 551.845 25.7158 553.356 26.4717C554.868 27.2275 555.984 28.1416 556.705 29.2139C557.443 30.2686 557.812 31.5605 557.812 33.0898C557.812 35.6387 556.793 37.6865 554.754 39.2334C552.715 40.7627 550.069 41.5273 546.817 41.5273C544.532 41.5273 542.511 41.123 540.753 40.3145C538.995 39.5059 537.615 38.3809 536.613 36.9395C535.629 35.4805 535.137 33.9072 535.137 32.2197H540.015C540.103 33.8545 540.753 35.1553 541.966 36.1221C543.196 37.0713 544.813 37.5459 546.817 37.5459C548.663 37.5459 550.14 37.1768 551.247 36.4385C552.372 35.6826 552.935 34.6807 552.935 33.4326ZM564.009 48.6465L561.24 46.748C562.893 44.4453 563.754 42.0723 563.824 39.6289V35.2256H568.597V39.0488C568.597 40.8242 568.157 42.5996 567.278 44.375C566.417 46.1504 565.327 47.5742 564.009 48.6465ZM601.951 16.8477C601.213 16.7246 600.413 16.6631 599.552 16.6631C596.353 16.6631 594.182 18.0254 593.039 20.75V41H588.161V12.4707H592.907L592.986 15.7666C594.586 13.2178 596.854 11.9434 599.789 11.9434C600.738 11.9434 601.459 12.0664 601.951 12.3125V16.8477ZM624.073 38.1787C622.175 40.4111 619.389 41.5273 615.715 41.5273C612.674 41.5273 610.354 40.6484 608.754 38.8906C607.172 37.1152 606.372 34.4961 606.354 31.0332V12.4707H611.232V30.9014C611.232 35.2256 612.99 37.3877 616.506 37.3877C620.232 37.3877 622.711 35.999 623.941 33.2217V12.4707H628.819V41H624.179L624.073 38.1787ZM640.869 12.4707L641.027 16.0566C643.207 13.3145 646.055 11.9434 649.57 11.9434C655.6 11.9434 658.641 15.3447 658.693 22.1475V41H653.815V22.1211C653.798 20.0645 653.323 18.5439 652.392 17.5596C651.478 16.5752 650.045 16.083 648.094 16.083C646.512 16.083 645.123 16.5049 643.928 17.3486C642.732 18.1924 641.801 19.2998 641.133 20.6709V41H636.255V12.4707H640.869ZM703.597 27.0518C703.597 31.4111 702.595 34.918 700.591 37.5723C698.587 40.209 695.897 41.5273 692.522 41.5273C688.919 41.5273 686.133 40.2529 684.164 37.7041L683.927 41H679.444V0.5H684.322V15.6084C686.291 13.165 689.007 11.9434 692.47 11.9434C695.933 11.9434 698.648 13.2529 700.617 15.8721C702.604 18.4912 703.597 22.0771 703.597 26.6299V27.0518ZM698.719 26.498C698.719 23.1758 698.077 20.6094 696.794 18.7988C695.511 16.9883 693.665 16.083 691.257 16.083C688.04 16.083 685.729 17.5771 684.322 20.5654V32.9053C685.816 35.8936 688.146 37.3877 691.31 37.3877C693.647 37.3877 695.467 36.4824 696.768 34.6719C698.068 32.8613 698.719 30.1367 698.719 26.498ZM727.38 38.1787C725.481 40.4111 722.695 41.5273 719.021 41.5273C715.98 41.5273 713.66 40.6484 712.061 38.8906C710.479 37.1152 709.679 34.4961 709.661 31.0332V12.4707H714.539V30.9014C714.539 35.2256 716.297 37.3877 719.812 37.3877C723.539 37.3877 726.018 35.999 727.248 33.2217V12.4707H732.126V41H727.485L727.38 38.1787ZM744.861 41H739.983V12.4707H744.861V41ZM739.588 4.90332C739.588 4.1123 739.825 3.44434 740.3 2.89941C740.792 2.35449 741.513 2.08203 742.462 2.08203C743.411 2.08203 744.132 2.35449 744.624 2.89941C745.116 3.44434 745.362 4.1123 745.362 4.90332C745.362 5.69434 745.116 6.35352 744.624 6.88086C744.132 7.4082 743.411 7.67188 742.462 7.67188C741.513 7.67188 740.792 7.4082 740.3 6.88086C739.825 6.35352 739.588 5.69434 739.588 4.90332ZM757.992 41H753.114V0.5H757.992V41ZM764.637 26.498C764.637 22.1211 765.674 18.6055 767.748 15.9512C769.822 13.2793 772.538 11.9434 775.896 11.9434C779.235 11.9434 781.881 13.0859 783.832 15.3711V0.5H788.71V41H784.228L783.99 37.9414C782.039 40.332 779.323 41.5273 775.843 41.5273C772.538 41.5273 769.84 40.1738 767.748 37.4668C765.674 34.7598 764.637 31.2266 764.637 26.8672V26.498ZM769.515 27.0518C769.515 30.2861 770.183 32.8174 771.519 34.6455C772.854 36.4736 774.7 37.3877 777.056 37.3877C780.149 37.3877 782.408 35.999 783.832 33.2217V20.1172C782.373 17.4277 780.132 16.083 777.108 16.083C774.718 16.083 772.854 17.0059 771.519 18.8516C770.183 20.6973 769.515 23.4307 769.515 27.0518ZM796.146 48.6465L793.377 46.748C795.029 44.4453 795.891 42.0723 795.961 39.6289V35.2256H800.733V39.0488C800.733 40.8242 800.294 42.5996 799.415 44.375C798.554 46.1504 797.464 47.5742 796.146 48.6465ZM834.088 16.8477C833.35 16.7246 832.55 16.6631 831.688 16.6631C828.489 16.6631 826.318 18.0254 825.176 20.75V41H820.298V12.4707H825.044L825.123 15.7666C826.723 13.2178 828.99 11.9434 831.926 11.9434C832.875 11.9434 833.596 12.0664 834.088 12.3125V16.8477ZM856.21 38.1787C854.312 40.4111 851.525 41.5273 847.852 41.5273C844.811 41.5273 842.49 40.6484 840.891 38.8906C839.309 37.1152 838.509 34.4961 838.491 31.0332V12.4707H843.369V30.9014C843.369 35.2256 845.127 37.3877 848.643 37.3877C852.369 37.3877 854.848 35.999 856.078 33.2217V12.4707H860.956V41H856.315L856.21 38.1787ZM873.006 12.4707L873.164 16.0566C875.344 13.3145 878.191 11.9434 881.707 11.9434C887.736 11.9434 890.777 15.3447 890.83 22.1475V41H885.952V22.1211C885.935 20.0645 885.46 18.5439 884.528 17.5596C883.614 16.5752 882.182 16.083 880.23 16.083C878.648 16.083 877.26 16.5049 876.064 17.3486C874.869 18.1924 873.938 19.2998 873.27 20.6709V41H868.392V12.4707H873.006ZM918.199 5.5625V12.4707H923.525V16.2412H918.199V33.9336C918.199 35.0762 918.437 35.9375 918.911 36.5176C919.386 37.0801 920.194 37.3613 921.337 37.3613C921.899 37.3613 922.673 37.2559 923.657 37.0449V41C922.374 41.3516 921.126 41.5273 919.913 41.5273C917.733 41.5273 916.09 40.8682 914.982 39.5498C913.875 38.2314 913.321 36.3594 913.321 33.9336V16.2412H908.127V12.4707H913.321V5.5625H918.199ZM941.086 41.5273C937.219 41.5273 934.072 40.2617 931.646 37.7305C929.221 35.1816 928.008 31.7803 928.008 27.5264V26.6299C928.008 23.7998 928.544 21.2773 929.616 19.0625C930.706 16.8301 932.218 15.0898 934.151 13.8418C936.103 12.5762 938.212 11.9434 940.479 11.9434C944.188 11.9434 947.071 13.165 949.128 15.6084C951.185 18.0518 952.213 21.5498 952.213 26.1025V28.1328H932.886C932.956 30.9453 933.773 33.2217 935.338 34.9619C936.92 36.6846 938.924 37.5459 941.35 37.5459C943.072 37.5459 944.531 37.1943 945.727 36.4912C946.922 35.7881 947.968 34.8564 948.864 33.6963L951.844 36.0166C949.453 39.6904 945.867 41.5273 941.086 41.5273ZM940.479 15.9512C938.511 15.9512 936.858 16.6719 935.522 18.1133C934.187 19.5371 933.36 21.541 933.044 24.125H947.335V23.7559C947.194 21.2773 946.526 19.3613 945.331 18.0078C944.136 16.6367 942.519 15.9512 940.479 15.9512ZM974.493 33.4326C974.493 32.1143 973.992 31.0947 972.99 30.374C972.006 29.6357 970.274 29.0029 967.796 28.4756C965.335 27.9482 963.375 27.3154 961.916 26.5771C960.475 25.8389 959.402 24.96 958.699 23.9404C958.014 22.9209 957.671 21.708 957.671 20.3018C957.671 17.9639 958.655 15.9863 960.624 14.3691C962.61 12.752 965.142 11.9434 968.218 11.9434C971.452 11.9434 974.071 12.7783 976.075 14.4482C978.097 16.1182 979.107 18.2539 979.107 20.8555H974.203C974.203 19.5195 973.632 18.3682 972.489 17.4014C971.364 16.4346 969.94 15.9512 968.218 15.9512C966.442 15.9512 965.054 16.3379 964.052 17.1113C963.05 17.8848 962.549 18.8955 962.549 20.1436C962.549 21.3213 963.015 22.209 963.946 22.8066C964.878 23.4043 966.557 23.9756 968.982 24.5205C971.426 25.0654 973.403 25.7158 974.915 26.4717C976.427 27.2275 977.543 28.1416 978.264 29.2139C979.002 30.2686 979.371 31.5605 979.371 33.0898C979.371 35.6387 978.352 37.6865 976.312 39.2334C974.273 40.7627 971.628 41.5273 968.376 41.5273C966.091 41.5273 964.069 41.123 962.312 40.3145C960.554 39.5059 959.174 38.3809 958.172 36.9395C957.188 35.4805 956.695 33.9072 956.695 32.2197H961.573C961.661 33.8545 962.312 35.1553 963.524 36.1221C964.755 37.0713 966.372 37.5459 968.376 37.5459C970.222 37.5459 971.698 37.1768 972.806 36.4385C973.931 35.6826 974.493 34.6807 974.493 33.4326ZM992.344 5.5625V12.4707H997.67V16.2412H992.344V33.9336C992.344 35.0762 992.581 35.9375 993.056 36.5176C993.53 37.0801 994.339 37.3613 995.481 37.3613C996.044 37.3613 996.817 37.2559 997.802 37.0449V41C996.519 41.3516 995.271 41.5273 994.058 41.5273C991.878 41.5273 990.234 40.8682 989.127 39.5498C988.02 38.2314 987.466 36.3594 987.466 33.9336V16.2412H982.271V12.4707H987.466V5.5625H992.344ZM1003.23 48.6465L1000.46 46.748C1002.12 44.4453 1002.98 42.0723 1003.05 39.6289V35.2256H1007.82V39.0488C1007.82 40.8242 1007.38 42.5996 1006.5 44.375C1005.64 46.1504 1004.55 47.5742 1003.23 48.6465Z" fill="#999795"/>
<path d="M0.700195 27.5H1010.3V30.1895H0.700195V27.5Z" fill="#999795"/>
</svg>
